<svg width="75" height="75" viewBox="0 0 75 75" fill="none" xmlns="http://www.w3.org/2000/svg">
<rect width="75" height="75" fill="#00BC62"/>
<path d="M21.1476 20.6364V57H16.7442V20.6364H21.1476ZM43.1869 45.6364H48.0164L52.0647 50.9631L53.1301 52.3835L59.167 60.4091H54.3374L50.3602 55.0824L49.3659 53.733L43.1869 45.6364ZM60.6585 38.8182C60.6585 42.6534 59.966 45.9678 58.5811 48.7614C57.1961 51.5549 55.2963 53.7093 52.8815 55.2244C50.4667 56.7396 47.7087 57.4972 44.6073 57.4972C41.506 57.4972 38.748 56.7396 36.3332 55.2244C33.9184 53.7093 32.0186 51.5549 30.6336 48.7614C29.2487 45.9678 28.5562 42.6534 28.5562 38.8182C28.5562 34.983 29.2487 31.6686 30.6336 28.875C32.0186 26.0814 33.9184 23.9271 36.3332 22.4119C38.748 20.8968 41.506 20.1392 44.6073 20.1392C47.7087 20.1392 50.4667 20.8968 52.8815 22.4119C55.2963 23.9271 57.1961 26.0814 58.5811 28.875C59.966 31.6686 60.6585 34.983 60.6585 38.8182ZM56.3971 38.8182C56.3971 35.6695 55.8704 33.0121 54.8169 30.8459C53.7752 28.6797 52.3606 27.0402 50.5732 25.9276C48.7977 24.8149 46.809 24.2585 44.6073 24.2585C42.4056 24.2585 40.4111 24.8149 38.6237 25.9276C36.8481 27.0402 35.4336 28.6797 34.3801 30.8459C33.3384 33.0121 32.8176 35.6695 32.8176 38.8182C32.8176 41.9669 33.3384 44.6243 34.3801 46.7905C35.4336 48.9567 36.8481 50.5961 38.6237 51.7088C40.4111 52.8215 42.4056 53.3778 44.6073 53.3778C46.809 53.3778 48.7977 52.8215 50.5732 51.7088C52.3606 50.5961 53.7752 48.9567 54.8169 46.7905C55.8704 44.6243 56.3971 41.9669 56.3971 38.8182Z" fill="black"/>
</svg>
