<svg width="100" height="100" viewBox="0 0 100 100" fill="none" xmlns="http://www.w3.org/2000/svg">
<g id="arrow-icons">
<path id="quarter" d="M50 1C22.9381 1 1 22.9381 1 50L50 50L50 1Z" stroke-width="2" stroke-linecap="round" stroke-linejoin="round"/>
<g id="arrow-nipple">
<rect id="outer" x="30.5" y="5.5" width="39" height="39" rx="19.5" stroke="black" stroke-opacity="0.35"/>
<rect id="inner" x="41.1667" y="9.5" width="19" height="19" rx="9.5" stroke="black" stroke-opacity="0.35"/>
</g>
<rect id="arrow-circle" x="36.4988" y="10.5044" width="27" height="27" rx="13.5"/>
<rect id="arrow-rect" x="40.5" y="14.5" width="19" height="19" rx="4.5" fill="" stroke="black"/>
<path id="arrow-diamond" d="M58.9393 22.2322L51.7678 15.0607C50.7915 14.0843 49.2085 14.0843 48.2322 15.0607L41.0607 22.2322C40.0843 23.2085 40.0843 24.7915 41.0607 25.7678L48.2322 32.9393C49.2085 33.9157 50.7915 33.9157 51.7678 32.9393L58.9393 25.7678C59.9157 24.7915 59.9157 23.2085 58.9393 22.2322Z" fill="" stroke="black"/>
<path id="arrow-hour" d="M45.7444 20.5912L45.583 20.7545L45.6015 20.9833L46.8664 36.5838C40.9183 38.0127 36.5 43.4157 36.5 49.8571C36.5 57.3867 42.539 63.5 50 63.5C57.461 63.5 63.5 57.3867 63.5 49.8571C63.5 43.4156 59.0816 38.0126 53.1334 36.5837L54.3983 20.9833L54.4168 20.7545L54.2554 20.5912L50.3554 16.6484L49.9999 16.289L49.6444 16.6484L45.7444 20.5912ZM57.3 49.8573C57.3 53.9415 54.0265 57.243 50 57.243C45.9735 57.243 42.7 53.9415 42.7 49.8573C42.7 45.7731 45.9735 42.4715 50 42.4715C54.0265 42.4715 57.3 45.7731 57.3 49.8573Z"/>
<path id="arrow-minute" d="M59 50C59 54.9706 54.9706 59 50 59C45.0294 59 41 54.9706 41 50C41 45.7168 43.992 42.1325 48 41.223V13H52V41.223C56.008 42.1325 59 45.7168 59 50Z"/>
<path id="circle" d="M50 1C77.0619 1 99 22.9381 99 50C99 77.0619 77.0619 99 50 99C22.9381 99 1 77.0619 1 50C1 22.9381 22.9381 1 50 1Z" stroke="black" stroke-width="2" stroke-linecap="round" stroke-linejoin="round"/>
<path id="hexagon" d="M50.012 98.8362L8 74.414V25.5858L50.0001 1.15679L91.9985 25.5745L92 74.4142L50.012 98.8362Z" stroke="black" stroke-width="2" stroke-linecap="round" fill="white"/>
<path id="pentagon" d="M3.67559 34.8927L49.9991 1.24137L96.3244 34.8928L78.6301 89.3502L21.3699 89.3505L3.67559 34.8927Z" stroke="black" stroke-width="2" stroke-linecap="round" stroke-linejoin="round"/>


<mask id="hex">
<path 
    stroke-width="2" stroke-linecap="round" stroke="white" fill="white"
    d="M50.012 98.8362L8 74.414V25.5858L50.0001 1.15679L91.9985 25.5745L92 74.4142L50.012 98.8362Z"/>
</mask>
</g>
</svg>
