<svg width="100" height="100" viewBox="0 0 100 100" fill="none" xmlns="http://www.w3.org/2000/svg">
<g id="card-suits">
<path id="frame" d="M99.5 0.5V99.5H0.5V0.5H99.5Z" stroke="#EB00FF" stroke-linecap="round" stroke-linejoin="round"/>
<g id="pairs">
<g id="spade-2">
<g id="spade">
<path id="spade_2" d="M48.5 53.9178C48.5 51.0405 47.4184 48.4197 45.6456 46.4516L45.2599 46.0447L28 27.834L10.7401 46.0447L10.3544 46.4516C8.58157 48.4197 7.5 51.0405 7.5 53.9178C7.5 56.5392 8.39773 58.9477 9.89806 60.8437C11.8956 63.3679 14.9613 64.9837 18.3987 64.9837C21.1654 64.9837 23.6914 63.937 25.6133 62.2123C25.6472 62.5165 25.6646 62.8259 25.6646 63.1394C25.6646 65.7795 24.4309 68.127 22.5169 69.6201L22.5506 71.834H28H33.4494L33.4831 69.6201C31.5691 68.127 30.3354 65.7795 30.3354 63.1394C30.3354 62.8259 30.3528 62.5165 30.3867 62.2123C32.3087 63.937 34.8346 64.9837 37.6013 64.9837C41.0387 64.9837 44.1044 63.3679 46.1019 60.8437C47.6023 58.9477 48.5 56.5392 48.5 53.9178Z" fill="#2B2B2B"/>
</g>
<g id="spade_3">
<path id="spade_4" d="M92.5 53.9178C92.5 51.0405 91.4184 48.4197 89.6456 46.4516L89.2599 46.0447L72 27.834L54.7401 46.0447L54.3544 46.4516C52.5816 48.4197 51.5 51.0405 51.5 53.9178C51.5 56.5392 52.3977 58.9477 53.8981 60.8437C55.8956 63.3679 58.9613 64.9837 62.3987 64.9837C65.1654 64.9837 67.6914 63.937 69.6133 62.2123C69.6472 62.5165 69.6646 62.8259 69.6646 63.1394C69.6646 65.7795 68.4309 68.127 66.5169 69.6201L66.5506 71.834H72H77.4494L77.4831 69.6201C75.5691 68.127 74.3354 65.7795 74.3354 63.1394C74.3354 62.8259 74.3528 62.5165 74.3867 62.2123C76.3087 63.937 78.8346 64.9837 81.6013 64.9837C85.0387 64.9837 88.1044 63.3679 90.1019 60.8437C91.6023 58.9477 92.5 56.5392 92.5 53.9178Z" fill="#2B2B2B"/>
</g>
</g>
<g id="heart-2">
<g id="heart">
<path id="heart_2" d="M27.5 68.833C29.5298 68.8329 41.0056 59.3343 45.4168 53.2265C48.1452 49.4489 49.0941 44.3269 48.1382 40.0546C47.5169 37.5373 46.1159 35.3018 44.2055 33.6624C42.1566 31.9042 39.5218 30.8318 36.6342 30.8331C32.9645 30.8349 29.7873 33.0127 27.5073 35.8901C25.2274 33.0127 22.0353 30.8347 18.3658 30.833C15.4783 30.8316 12.8432 31.9041 10.7944 33.6623C8.88413 35.3017 7.48308 37.5372 6.86176 40.0545C5.90586 44.3268 6.85492 49.4488 9.58315 53.2264C13.9942 59.3342 25.4703 68.8331 27.5 68.833Z" fill="#F43229"/>
</g>
<g id="heart_3">
<path id="heart_4" d="M72.5 68.833C74.5298 68.8329 86.0056 59.3343 90.4168 53.2265C93.1452 49.4489 94.0941 44.3269 93.1382 40.0546C92.5169 37.5373 91.1159 35.3018 89.2055 33.6624C87.1566 31.9042 84.5218 30.8318 81.6342 30.8331C77.9645 30.8349 74.7873 33.0127 72.5073 35.8901C70.2274 33.0127 67.0353 30.8347 63.3658 30.833C60.4783 30.8316 57.8432 31.9041 55.7944 33.6623C53.8841 35.3017 52.4831 37.5372 51.8618 40.0545C50.9059 44.3268 51.8549 49.4488 54.5831 53.2264C58.9942 59.3342 70.4703 68.8331 72.5 68.833Z" fill="#F43229"/>
</g>
</g>
<g id="club-2">
<g id="club">
<path id="club_2" d="M16.25 39.2125C16.25 33.2039 21.0629 28.333 27 28.333C32.9371 28.333 37.75 33.2039 37.75 39.2125C37.75 40.692 37.4582 42.1025 36.9297 43.3883C37.2004 43.3676 37.474 43.3571 37.75 43.3571C43.6871 43.3571 48.5 48.228 48.5 54.2366C48.5 58.1569 46.4513 61.5928 43.3782 63.5077C41.7412 64.5277 39.8135 65.1161 37.75 65.1161C34.161 65.1161 30.9829 63.3362 29.0303 60.601C28.7109 61.4394 28.5357 62.3505 28.5357 63.3029C28.5357 65.8068 29.7462 68.0245 31.6071 69.3895V71.333H27H22.3929V69.3895C24.2538 68.0245 25.4643 65.8068 25.4643 63.3029C25.4643 62.3505 25.2891 61.4394 24.9697 60.601C23.0171 63.3362 19.839 65.1161 16.25 65.1161C14.1865 65.1161 12.2588 64.5277 10.6218 63.5077C7.54874 61.5928 5.5 58.1569 5.5 54.2366C5.5 48.228 10.3129 43.3571 16.25 43.3571C16.526 43.3571 16.7996 43.3676 17.0703 43.3883C16.5418 42.1025 16.25 40.692 16.25 39.2125Z" fill="#2B2B2B"/>
</g>
<g id="club_3">
<path id="club_4" d="M62.25 39.2125C62.25 33.2039 67.0629 28.333 73 28.333C78.9371 28.333 83.75 33.2039 83.75 39.2125C83.75 40.692 83.4582 42.1025 82.9297 43.3883C83.2004 43.3676 83.474 43.3571 83.75 43.3571C89.6871 43.3571 94.5 48.228 94.5 54.2366C94.5 58.1569 92.4513 61.5928 89.3782 63.5077C87.7412 64.5277 85.8135 65.1161 83.75 65.1161C80.161 65.1161 76.9829 63.3362 75.0303 60.601C74.7109 61.4394 74.5357 62.3505 74.5357 63.3029C74.5357 65.8068 75.7462 68.0245 77.6071 69.3895V71.333H73H68.3929V69.3895C70.2538 68.0245 71.4643 65.8068 71.4643 63.3029C71.4643 62.3505 71.2891 61.4394 70.9697 60.601C69.0171 63.3362 65.839 65.1161 62.25 65.1161C60.1865 65.1161 58.2588 64.5277 56.6218 63.5077C53.5487 61.5928 51.5 58.1569 51.5 54.2366C51.5 48.228 56.3129 43.3571 62.25 43.3571C62.526 43.3571 62.7996 43.3676 63.0703 43.3883C62.5418 42.1025 62.25 40.692 62.25 39.2125Z" fill="#2B2B2B"/>
</g>
</g>
<g id="mix-2">
<g id="heart_5">
<path id="heart_6" d="M28 68.834C30.0298 68.8339 41.5056 59.3353 45.9168 53.2275C48.6452 49.4499 49.5941 44.3279 48.6382 40.0556C48.0169 37.5383 46.6159 35.3028 44.7055 33.6634C42.6566 31.9052 40.0218 30.8327 37.1342 30.8341C33.4645 30.8358 30.2873 33.0137 28.0073 35.8911C25.7274 33.0137 22.5353 30.8357 18.8658 30.834C15.9783 30.8326 13.3432 31.9051 11.2944 33.6633C9.38413 35.3026 7.98308 37.5382 7.36176 40.0555C6.40586 44.3278 7.35492 49.4498 10.0831 53.2274C14.4942 59.3352 25.9703 68.8341 28 68.834Z" fill="#F43229"/>
</g>
<g id="spade_5">
<path id="spade_6" d="M93 53.9178C93 51.0405 91.9184 48.4197 90.1456 46.4516L89.7599 46.0447L72.5 27.834L55.2401 46.0447L54.8544 46.4516C53.0816 48.4197 52 51.0405 52 53.9178C52 56.5392 52.8977 58.9477 54.3981 60.8437C56.3956 63.3679 59.4613 64.9837 62.8987 64.9837C65.6654 64.9837 68.1914 63.937 70.1133 62.2123C70.1472 62.5165 70.1646 62.8259 70.1646 63.1394C70.1646 65.7795 68.9309 68.127 67.0169 69.6201L67.0506 71.834H72.5H77.9494L77.9831 69.6201C76.0691 68.127 74.8354 65.7795 74.8354 63.1394C74.8354 62.8259 74.8528 62.5165 74.8867 62.2123C76.8087 63.937 79.3346 64.9837 82.1013 64.9837C85.5387 64.9837 88.6044 63.3679 90.6019 60.8437C92.1023 58.9477 93 56.5392 93 53.9178Z" fill="#2B2B2B"/>
</g>
</g>
</g>
<g id="trees">
<g id="spade-3">
<g id="spade_7">
<path id="spade_8" d="M34.5 52.339C34.5 50.5734 33.8405 48.9651 32.7595 47.7575L32.5243 47.5078L22 36.333L11.4757 47.5078L11.2405 47.7575C10.1595 48.9651 9.5 50.5734 9.5 52.339C9.5 53.9476 10.0474 55.4255 10.9622 56.589C12.1802 58.1379 14.0496 59.1294 16.1456 59.1294C17.8326 59.1294 19.3728 58.4871 20.5447 57.4288C20.5653 57.6155 20.5759 57.8053 20.5759 57.9977C20.5759 59.6177 19.8237 61.0583 18.6566 61.9745L18.6772 63.333H22H25.3228L25.3434 61.9745C24.1763 61.0583 23.4241 59.6177 23.4241 57.9977C23.4241 57.8053 23.4347 57.6155 23.4553 57.4288C24.6272 58.4871 26.1674 59.1294 27.8544 59.1294C29.9504 59.1294 31.8198 58.1379 33.0378 56.589C33.9526 55.4255 34.5 53.9476 34.5 52.339Z" fill="#2B2B2B"/>
</g>
<g id="spade_9">
<path id="spade_10" d="M62.5 52.339C62.5 50.5734 61.8405 48.9651 60.7595 47.7575L60.5243 47.5078L50 36.333L39.4757 47.5078L39.2405 47.7575C38.1595 48.9651 37.5 50.5734 37.5 52.339C37.5 53.9476 38.0474 55.4255 38.9622 56.589C40.1802 58.1379 42.0496 59.1294 44.1456 59.1294C45.8326 59.1294 47.3728 58.4871 48.5447 57.4288C48.5653 57.6155 48.5759 57.8053 48.5759 57.9977C48.5759 59.6177 47.8237 61.0583 46.6566 61.9745L46.6772 63.333H50H53.3228L53.3434 61.9745C52.1763 61.0583 51.4241 59.6177 51.4241 57.9977C51.4241 57.8053 51.4347 57.6155 51.4553 57.4288C52.6272 58.4871 54.1674 59.1294 55.8544 59.1294C57.9504 59.1294 59.8198 58.1379 61.0378 56.589C61.9526 55.4255 62.5 53.9476 62.5 52.339Z" fill="#2B2B2B"/>
</g>
<g id="spade_11">
<path id="spade_12" d="M90.5 52.339C90.5 50.5734 89.8405 48.9651 88.7595 47.7575L88.5243 47.5078L78 36.333L67.4757 47.5078L67.2405 47.7575C66.1595 48.9651 65.5 50.5734 65.5 52.339C65.5 53.9476 66.0474 55.4255 66.9622 56.589C68.1802 58.1379 70.0496 59.1294 72.1456 59.1294C73.8326 59.1294 75.3728 58.4871 76.5447 57.4288C76.5653 57.6155 76.5759 57.8053 76.5759 57.9977C76.5759 59.6177 75.8237 61.0583 74.6566 61.9745L74.6772 63.333H78H81.3228L81.3434 61.9745C80.1763 61.0583 79.4241 59.6177 79.4241 57.9977C79.4241 57.8053 79.4347 57.6155 79.4553 57.4288C80.6272 58.4871 82.1674 59.1294 83.8544 59.1294C85.9504 59.1294 87.8198 58.1379 89.0378 56.589C89.9526 55.4255 90.5 53.9476 90.5 52.339Z" fill="#2B2B2B"/>
</g>
</g>
<g id="heart-3">
<g id="heart_7">
<path id="heart_8" d="M21 62C22.2565 61.9999 29.3606 56.2508 32.0914 52.554C33.7803 50.2675 34.3678 47.1674 33.776 44.5815C33.3914 43.0579 32.5241 41.7048 31.3415 40.7125C30.0732 39.6483 28.442 38.9992 26.6545 39.0001C24.3828 39.0011 22.4159 40.3193 21.0045 42.0609C19.5932 40.3193 17.6171 39.001 15.3455 39C13.558 38.9992 11.9268 39.6483 10.6585 40.7125C9.47589 41.7047 8.60858 43.0578 8.22395 44.5814C7.6322 47.1673 8.21972 50.2675 9.90861 52.5539C12.6393 56.2507 19.7435 62.0001 21 62Z" fill="#F43229"/>
</g>
<g id="heart_9">
<path id="heart_10" d="M50 62C51.2565 61.9999 58.3606 56.2508 61.0914 52.554C62.7803 50.2675 63.3678 47.1674 62.776 44.5815C62.3914 43.0579 61.5241 41.7048 60.3415 40.7125C59.0732 39.6483 57.442 38.9992 55.6545 39.0001C53.3828 39.0011 51.4159 40.3193 50.0045 42.0609C48.5932 40.3193 46.6171 39.001 44.3455 39C42.558 38.9992 40.9268 39.6483 39.6585 40.7125C38.4759 41.7047 37.6086 43.0578 37.2239 44.5814C36.6322 47.1673 37.2197 50.2675 38.9086 52.5539C41.6393 56.2507 48.7435 62.0001 50 62Z" fill="#F43229"/>
</g>
<g id="heart_11">
<path id="heart_12" d="M79 62C80.2565 61.9999 87.3606 56.2508 90.0914 52.554C91.7803 50.2675 92.3678 47.1674 91.776 44.5815C91.3914 43.0579 90.5241 41.7048 89.3415 40.7125C88.0732 39.6483 86.442 38.9992 84.6545 39.0001C82.3828 39.0011 80.4159 40.3193 79.0045 42.0609C77.5932 40.3193 75.6171 39.001 73.3455 39C71.558 38.9992 69.9268 39.6483 68.6585 40.7125C67.4759 41.7047 66.6086 43.0578 66.2239 44.5814C65.6322 47.1673 66.2197 50.2675 67.9086 52.5539C70.6393 56.2507 77.7435 62.0001 79 62Z" fill="#F43229"/>
</g>
</g>
<g id="club-3">
<g id="club_5">
<path id="club_6" d="M13.75 43.1643C13.75 39.3915 16.7721 36.333 20.5 36.333C24.2279 36.333 27.25 39.3915 27.25 43.1643C27.25 44.0933 27.0668 44.979 26.7349 45.7863C26.9049 45.7734 27.0767 45.7667 27.25 45.7667C30.9779 45.7667 34 48.8252 34 52.5981C34 55.0596 32.7136 57.2171 30.784 58.4194C29.7561 59.0599 28.5457 59.4294 27.25 59.4294C24.9965 59.4294 23.0009 58.3118 21.7748 56.5943C21.5743 57.1208 21.4643 57.6928 21.4643 58.2908C21.4643 59.863 22.2243 61.2556 23.3929 62.1127V63.333H20.5H17.6071V62.1127C18.7757 61.2556 19.5357 59.863 19.5357 58.2908C19.5357 57.6928 19.4257 57.1208 19.2252 56.5943C17.9991 58.3118 16.0035 59.4294 13.75 59.4294C12.4543 59.4294 11.2439 59.0599 10.216 58.4194C8.28642 57.2171 7 55.0596 7 52.5981C7 48.8252 10.0221 45.7667 13.75 45.7667C13.9233 45.7667 14.0951 45.7734 14.2651 45.7863C13.9332 44.979 13.75 44.0933 13.75 43.1643Z" fill="#2B2B2B"/>
</g>
<g id="club_7">
<path id="club_8" d="M43.5 43.1643C43.5 39.3915 46.4101 36.333 50 36.333C53.5899 36.333 56.5 39.3915 56.5 43.1643C56.5 44.0933 56.3236 44.979 56.004 45.7863C56.1677 45.7734 56.3331 45.7667 56.5 45.7667C60.0899 45.7667 63 48.8252 63 52.5981C63 55.0596 61.7612 57.2171 59.9031 58.4194C58.9133 59.0599 57.7477 59.4294 56.5 59.4294C54.3299 59.4294 52.4082 58.3118 51.2276 56.5943C51.0345 57.1208 50.9286 57.6928 50.9286 58.2908C50.9286 59.863 51.6605 61.2556 52.7857 62.1127V63.333H50H47.2143V62.1127C48.3395 61.2556 49.0714 59.863 49.0714 58.2908C49.0714 57.6928 48.9655 57.1208 48.7724 56.5943C47.5918 58.3118 45.6701 59.4294 43.5 59.4294C42.2523 59.4294 41.0867 59.0599 40.0969 58.4194C38.2388 57.2171 37 55.0596 37 52.5981C37 48.8252 39.9101 45.7667 43.5 45.7667C43.6669 45.7667 43.8323 45.7734 43.996 45.7863C43.6764 44.979 43.5 44.0933 43.5 43.1643Z" fill="#2B2B2B"/>
</g>
<g id="club_9">
<path id="club_10" d="M72.75 43.1643C72.75 39.3915 75.7721 36.333 79.5 36.333C83.2279 36.333 86.25 39.3915 86.25 43.1643C86.25 44.0933 86.0668 44.979 85.7349 45.7863C85.9049 45.7734 86.0767 45.7667 86.25 45.7667C89.9779 45.7667 93 48.8252 93 52.5981C93 55.0596 91.7136 57.2171 89.784 58.4194C88.7561 59.0599 87.5457 59.4294 86.25 59.4294C83.9965 59.4294 82.0009 58.3118 80.7748 56.5943C80.5743 57.1208 80.4643 57.6928 80.4643 58.2908C80.4643 59.863 81.2243 61.2556 82.3929 62.1127V63.333H79.5H76.6071V62.1127C77.7757 61.2556 78.5357 59.863 78.5357 58.2908C78.5357 57.6928 78.4257 57.1208 78.2252 56.5943C76.9991 58.3118 75.0035 59.4294 72.75 59.4294C71.4543 59.4294 70.2439 59.0599 69.216 58.4194C67.2864 57.2171 66 55.0596 66 52.5981C66 48.8252 69.0221 45.7667 72.75 45.7667C72.9233 45.7667 73.0951 45.7734 73.2651 45.7863C72.9332 44.979 72.75 44.0933 72.75 43.1643Z" fill="#2B2B2B"/>
</g>
</g>
<g id="mix-3">
<g id="diamond">
<path id="diamond_2" d="M22 36.333L33.5 49.7522L22 63.333L10.5 49.7523L22 36.333Z" fill="#F43229"/>
</g>
<g id="club_11">
<path id="club_12" d="M43.25 43.1643C43.25 39.3915 46.2721 36.333 50 36.333C53.7279 36.333 56.75 39.3915 56.75 43.1643C56.75 44.0933 56.5668 44.979 56.2349 45.7863C56.4049 45.7734 56.5767 45.7667 56.75 45.7667C60.4779 45.7667 63.5 48.8252 63.5 52.5981C63.5 55.0596 62.2136 57.2171 60.284 58.4194C59.2561 59.0599 58.0457 59.4294 56.75 59.4294C54.4965 59.4294 52.5009 58.3118 51.2748 56.5943C51.0743 57.1208 50.9643 57.6928 50.9643 58.2908C50.9643 59.863 51.7243 61.2556 52.8929 62.1127V63.333H50H47.1071V62.1127C48.2757 61.2556 49.0357 59.863 49.0357 58.2908C49.0357 57.6928 48.9257 57.1208 48.7252 56.5943C47.4991 58.3118 45.5035 59.4294 43.25 59.4294C41.9543 59.4294 40.7439 59.0599 39.716 58.4194C37.7864 57.2171 36.5 55.0596 36.5 52.5981C36.5 48.8252 39.5221 45.7667 43.25 45.7667C43.4233 45.7667 43.5951 45.7734 43.7651 45.7863C43.4332 44.979 43.25 44.0933 43.25 43.1643Z" fill="#2B2B2B"/>
</g>
<g id="diamond_3">
<path id="diamond_4" d="M78 36.333L89.5 49.7522L78 63.333L66.5 49.7523L78 36.333Z" fill="#F43229"/>
</g>
</g>
</g>
<g id="ones">
<g id="heart-1">
<g id="heart_13">
<path id="heart_14" d="M50.3828 86.5002C54.3826 86.5 76.9969 68.1277 85.6897 56.3139C91.0662 49.0072 92.9362 39.1001 91.0525 30.8366C89.828 25.9676 87.0673 21.6436 83.3027 18.4727C79.2652 15.0719 74.0729 12.9976 68.3825 13.0002C61.1511 13.0036 54.89 17.216 50.3971 22.7815C45.9043 17.216 39.6139 13.0033 32.3828 13C26.6927 12.9974 21.5 15.0717 17.4626 18.4725C13.6982 21.6433 10.9373 25.9674 9.71288 30.8363C7.82919 39.0999 9.69942 49.007 15.0757 56.3137C23.7681 68.1274 46.383 86.5005 50.3828 86.5002Z" fill="#F43229"/>
</g>
</g>
<g id="spade-1">
<g id="spade_13">
<path id="spade_14" d="M90 57.5C90 52.0397 87.916 47.066 84.5 43.3312L83.7569 42.5589L50.5 8L17.2431 42.5589L16.5 43.3312C13.084 47.066 11 52.0397 11 57.5C11 62.4747 12.7298 67.0454 15.6207 70.6434C19.4696 75.4338 25.3767 78.5 32 78.5C37.331 78.5 42.198 76.5136 45.9012 73.2406C45.9665 73.818 46 74.4051 46 75C46 80.0102 43.6229 84.4652 39.9349 87.2986L40 91.5H50.5H61L61.0651 87.2986C57.3771 84.4652 55 80.0102 55 75C55 74.4051 55.0335 73.818 55.0988 73.2406C58.802 76.5136 63.669 78.5 69 78.5C75.6233 78.5 81.5304 75.4338 85.3793 70.6434C88.2702 67.0454 90 62.4747 90 57.5Z" fill="#2B2B2B"/>
</g>
</g>
<g id="diamond-1">
<g id="diamond_5">
<path id="diamond_6" d="M50 8L85 49.5L50 91.5L15 49.5004L50 8Z" fill="#F43229"/>
</g>
</g>
<g id="club-1">
<g id="club_13">
<path id="club_14" d="M29 30C29 18.402 38.402 9 50 9C61.598 9 71 18.402 71 30C71 32.8557 70.43 35.5783 69.3975 38.0602C69.9264 38.0203 70.4608 38 71 38C82.598 38 92 47.402 92 59C92 66.567 87.9978 73.1991 81.9947 76.8953C78.7968 78.8642 75.031 80 71 80C63.989 80 57.7805 76.5643 53.9662 71.2847C53.3421 72.9031 53 74.6616 53 76.5C53 81.3331 55.3646 85.6139 59 88.2486V92H50H41V88.2486C44.6354 85.6139 47 81.3331 47 76.5C47 74.6616 46.6579 72.9031 46.0338 71.2847C42.2195 76.5643 36.011 80 29 80C24.969 80 21.2032 78.8642 18.0053 76.8953C12.0022 73.1991 8 66.567 8 59C8 47.402 17.402 38 29 38C29.5392 38 30.0736 38.0203 30.6025 38.0602C29.57 35.5783 29 32.8557 29 30Z" fill="#2B2B2B"/>
</g>
</g>
</g>
</g>
</svg>
