<svg id="arrow" viewBox="0 0 80 80" fill="none" xmlns="http://www.w3.org/2000/svg">
    <path d="M40 50C34.4772 50 30 45.5228 30 40C30 35.1621 33.4355 31.1266 37.9999 30.2001V10.0001H41.9999V30.2C46.5644 31.1265 50 35.1621 50 40C50 45.5228 45.5228 50 40 50Z" fill="currentColor"/>
    <path d="M38.4999 30.2001V10.5001H41.4999V30.2V30.6087L41.9005 30.69C46.2365 31.5702 49.5 35.4045 49.5 40C49.5 45.2467 45.2467 49.5 40 49.5C34.7533 49.5 30.5 45.2467 30.5 40C30.5 35.4046 33.7634 31.5703 38.0994 30.6901L38.4999 30.6088V30.2001Z" stroke="black" stroke-opacity="0.35"/>
</svg>
