<svg id="arrow-alt" viewBox="0 0 80 80" fill="none" xmlns="http://www.w3.org/2000/svg">
    <path fill-rule="evenodd" clip-rule="evenodd" d="M30 39.9999C30 45.5228 34.4772 49.9999 40 49.9999C45.5228 49.9999 50 45.5228 50 39.9999C50 35.162 46.5644 31.1265 41.9999 30.2L42.9999 18L39.9999 15L36.9999 18L37.9999 30.2C33.4355 31.1266 30 35.162 30 39.9999ZM40 46.0001C43.3137 46.0001 46 43.3138 46 40.0001C46 36.6863 43.3137 34.0001 40 34.0001C36.6863 34.0001 34 36.6863 34 40.0001C34 43.3138 36.6863 46.0001 40 46.0001Z" fill="currentColor"/>
    <path d="M37.5172 18.1899L39.9999 15.7071L42.4827 18.1899L41.5016 30.1591L41.4653 30.6016L41.9005 30.69C46.2365 31.5701 49.5 35.4045 49.5 39.9999C49.5 45.2466 45.2467 49.4999 40 49.4999C34.7533 49.4999 30.5 45.2466 30.5 39.9999C30.5 35.4045 33.7634 31.5702 38.0994 30.69L38.5345 30.6017L38.4982 30.1591L37.5172 18.1899ZM40 46.5001C43.5899 46.5001 46.5 43.5899 46.5 40.0001C46.5 36.4102 43.5899 33.5001 40 33.5001C36.4101 33.5001 33.5 36.4102 33.5 40.0001C33.5 43.5899 36.4101 46.5001 40 46.5001Z" stroke="black" stroke-opacity="0.35"/>
</svg>
