<svg width="320" height="320" viewBox="0 0 320 320" fill="none" xmlns="http://www.w3.org/2000/svg">
<g id="cutout-go" clip-path="url(#clip0_873_2666)">
<g id="pattern">
<rect id="background" width="320" height="320" fill="#FFDF32"/>
<g id="lines">
<line id="Line 29" y1="213" x2="320" y2="213" stroke="black" stroke-width="4"/>
<line id="Line 28" y1="107" x2="320" y2="107" stroke="black" stroke-width="4"/>
<line id="Line 3" x1="213" y1="-8.74228e-08" x2="213" y2="320" stroke="black" stroke-width="4"/>
<line id="Line 2" x1="107" y1="-8.74228e-08" x2="107" y2="320" stroke="black" stroke-width="4"/>
</g>
<g id="circles">
<circle id="Ellipse 6" cx="160" cy="54" r="40" fill="black"/>
<circle id="Ellipse 5" cx="54" cy="160" r="40" fill="black"/>
<circle id="Ellipse 9" cx="266" cy="160" r="40" fill="black"/>
<circle id="Ellipse 10" cx="54" cy="266" r="40" fill="black"/>
<circle id="Ellipse 11" cx="160" cy="266" r="40" fill="black"/>
<circle id="Ellipse 12" cx="266" cy="266" r="40" fill="black"/>
</g>
</g>
<g id="questions">
<rect id="question-9" x="175" y="175" width="76" height="76" stroke="#EB00FF" stroke-width="4"/>
<rect id="question-8" x="175" y="122" width="76" height="76" stroke="#EB00FF" stroke-width="4"/>
<rect id="question-7" x="175" y="69" width="76" height="76" stroke="#EB00FF" stroke-width="4"/>
<rect id="question-6" x="122" y="175" width="76" height="76" stroke="#EB00FF" stroke-width="4"/>
<rect id="question-5" x="122" y="122" width="76" height="76" stroke="#EB00FF" stroke-width="4"/>
<rect id="question-4" x="122" y="69" width="76" height="76" stroke="#EB00FF" stroke-width="4"/>
<rect id="question-3" x="69" y="175" width="76" height="76" stroke="#EB00FF" stroke-width="4"/>
<rect id="question-2" x="69" y="122" width="76" height="76" stroke="#EB00FF" stroke-width="4"/>
<rect id="question-1" x="69" y="69" width="76" height="76" stroke="#EB00FF" stroke-width="4"/>
</g>
</g>
<defs>
<clipPath id="clip0_873_2666">
<rect width="320" height="320" fill="white"/>
</clipPath>
</defs>
</svg>
