<svg width="320" height="320" viewBox="0 0 320 320" fill="none" xmlns="http://www.w3.org/2000/svg">
<g id="cutout-rays" clip-path="url(#clip0_1649_2531)">
<g id="pattern">
<rect id="background" width="320" height="320" fill="var(--bg-color, #FFDF32)"/>
<g fill="var(--color,#FF5455)">
<path d="M91.1373 93.8039L89.3281 122.751L114.883 117.96L119.747 92.0158L91.1373 93.8039Z" />
<path d="M124.571 66.2857L92.9805 64.3113L91.1373 93.8039L119.747 92.0158L124.571 66.2857Z" />
<path d="M128.996 42.6868L94.7336 36.2625L92.9805 64.3113L124.571 66.2857L128.996 42.6868Z" />
<path d="M57.834 29.3439L59.8902 62.2431L92.9805 64.3113L94.7336 36.2625L57.834 29.3439Z" />
<path d="M20.1781 22.2834L27.2885 60.2055L59.8902 62.2431L57.834 29.3439L20.1781 22.2834Z" />
<path d="M61.9767 95.6265L91.1373 93.8039L92.9805 64.3113L59.8902 62.2431L61.9767 95.6265Z" />
<path d="M59.8902 62.2431L27.2885 60.2055L34.2548 97.3591L61.9767 95.6265L59.8902 62.2431Z" />
<path d="M89.3281 122.751L91.1373 93.8039L61.9767 95.6265L63.9691 127.506L89.3281 122.751Z" />
<path d="M61.9767 95.6265L34.2548 97.3591L40.7245 131.864L63.9691 127.506L61.9767 95.6265Z" />
<path d="M89.2964 254.419L81.0667 254.933L79.1779 285.154L83.6923 284.308L89.2964 254.419Z" />
<path d="M71.9689 255.502L73.8842 286.147L79.1779 285.154L81.0667 254.933L71.9689 255.502Z" />
<path d="M64 256L69.7962 286.913L73.8842 286.147L71.9689 255.502L64 256Z" />
<path d="M69.9608 223.373L57.7391 222.609L64 256L71.9689 255.502L69.9608 223.373Z" />
<path d="M81.0667 254.933L82.9883 224.187L69.9608 223.373L71.9689 255.502L81.0667 254.933Z" />
<path d="M81.0667 254.933L89.2964 254.419L94.8263 224.927L82.9883 224.187L81.0667 254.933Z" />
<path d="M99.9245 197.736L84.8185 194.903L82.9883 224.187L94.8263 224.927L99.9245 197.736Z" />
<path d="M67.9842 191.747L69.9608 223.373L82.9883 224.187L84.8185 194.903L67.9842 191.747Z" />
<path d="M57.7391 222.609L69.9608 223.373L67.9842 191.747L51.3684 188.632L57.7391 222.609Z" />
<path d="M254.95 234.934L244.358 234.272L243.702 244.769L253.217 244.174L254.95 234.934Z" />
<path d="M256.423 227.079L244.942 224.927L244.358 234.272L254.95 234.934L256.423 227.079Z" />
<path d="M231.905 222.482L232.596 233.537L244.358 234.272L244.942 224.927L231.905 222.482Z" />
<path d="M219.271 220.113L221.66 232.854L232.596 233.537L231.905 222.482L219.271 220.113Z" />
<path d="M224.124 245.992L233.339 245.416L232.596 233.537L221.66 232.854L224.124 245.992Z" />
<path d="M243.702 244.769L244.358 234.272L232.596 233.537L233.339 245.416L243.702 244.769Z" />
<path d="M243.702 244.769L243.099 254.419L251.595 252.826L253.217 244.174L243.702 244.769Z" />
<path d="M243.099 254.419L243.702 244.769L233.339 245.416L234.008 256.124L243.099 254.419Z" />
<path d="M233.339 245.416L224.124 245.992L226.294 257.57L234.008 256.124L233.339 245.416Z" />
<path d="M253.249 92.0158L282.785 86.4777L283.668 81.7708L253.773 83.6392L253.249 92.0158Z" />
<path d="M284.695 76.2934L254.35 74.3969L253.773 83.6392L283.668 81.7708L284.695 76.2934Z" />
<path d="M285.494 72.0302L254.857 66.2857L254.35 74.3969L284.695 76.2934L285.494 72.0302Z" />
<path d="M222.525 72.4078L223.346 85.5409L253.773 83.6392L254.35 74.3969L222.525 72.4078Z" />
<path d="M254.35 74.3969L254.857 66.2857L221.755 60.079L222.525 72.4078L254.35 74.3969Z" />
<path d="M253.249 92.0158L253.773 83.6392L223.346 85.5409L224.093 97.4826L253.249 92.0158Z" />
<path d="M194.378 87.3513L197.223 102.521L224.093 97.4826L223.346 85.5409L194.378 87.3513Z" />
<path d="M223.346 85.5409L222.525 72.4078L191.209 70.4506L194.378 87.3513L223.346 85.5409Z" />
<path d="M222.525 72.4078L221.755 60.079L188.081 53.7652L191.209 70.4506L222.525 72.4078Z" />
<path d="M218 0L221.755 60.079M178 0L188.081 53.7652M259 0L254.857 66.2857M299 0L285.494 72.0302M56 0L57.834 29.3439M16 0L20.1781 22.2834M97 0L94.7336 36.2625M137 0L128.996 42.6868M0 260L64 256M0 300L69.7962 286.913M0 219L57.7391 222.609M0 179L51.3684 188.632M0 99.5L34.2548 97.3591M0 139.5L40.7245 131.864M0 58.5L27.2885 60.2055M0 18.5L20.1781 22.2834M91.1373 93.8039L89.3281 122.751M91.1373 93.8039L119.747 92.0158M91.1373 93.8039L92.9805 64.3113M91.1373 93.8039L61.9767 95.6265M89.3281 122.751L114.883 117.96M89.3281 122.751L63.9691 127.506M89.3281 122.751L84.8185 194.903M114.883 117.96L119.747 92.0158M114.883 117.96L99.9245 197.736M114.883 117.96L197.223 102.521M119.747 92.0158L124.571 66.2857M119.747 92.0158L194.378 87.3513M124.571 66.2857L92.9805 64.3113M124.571 66.2857L128.996 42.6868M124.571 66.2857L191.209 70.4506M92.9805 64.3113L94.7336 36.2625M92.9805 64.3113L59.8902 62.2431M128.996 42.6868L94.7336 36.2625M128.996 42.6868L188.081 53.7652M94.7336 36.2625L57.834 29.3439M57.834 29.3439L59.8902 62.2431M57.834 29.3439L20.1781 22.2834M59.8902 62.2431L27.2885 60.2055M59.8902 62.2431L61.9767 95.6265M20.1781 22.2834L27.2885 60.2055M27.2885 60.2055L34.2548 97.3591M61.9767 95.6265L34.2548 97.3591M61.9767 95.6265L63.9691 127.506M34.2548 97.3591L40.7245 131.864M63.9691 127.506L40.7245 131.864M63.9691 127.506L67.9842 191.747M40.7245 131.864L51.3684 188.632M89.2964 254.419L81.0667 254.933M89.2964 254.419L83.6923 284.308M89.2964 254.419L94.8263 224.927M89.2964 254.419L224.124 245.992M81.0667 254.933L79.1779 285.154M81.0667 254.933L71.9689 255.502M81.0667 254.933L82.9883 224.187M79.1779 285.154L83.6923 284.308M79.1779 285.154L77 320L83.6923 284.308M79.1779 285.154L73.8842 286.147M83.6923 284.308L226.294 257.57M71.9689 255.502L73.8842 286.147M71.9689 255.502L64 256M71.9689 255.502L69.9608 223.373M73.8842 286.147L76 320L69.7962 286.913M73.8842 286.147L69.7962 286.913M64 256L69.7962 286.913M64 256L57.7391 222.609M69.9608 223.373L57.7391 222.609M69.9608 223.373L82.9883 224.187M69.9608 223.373L67.9842 191.747M57.7391 222.609L51.3684 188.632M82.9883 224.187L94.8263 224.927M82.9883 224.187L84.8185 194.903M94.8263 224.927L99.9245 197.736M94.8263 224.927L221.66 232.854M99.9245 197.736L84.8185 194.903M99.9245 197.736L219.271 220.113M84.8185 194.903L67.9842 191.747M67.9842 191.747L51.3684 188.632M243.702 244.769L243.099 254.419M243.702 244.769L253.217 244.174M243.702 244.769L244.358 234.272M243.702 244.769L233.339 245.416M243.099 254.419L251.595 252.826M243.099 254.419L239 320L251.595 252.826M243.099 254.419L234.008 256.124M251.595 252.826L253.217 244.174M251.595 252.826L320 240L253.217 244.174M253.217 244.174L254.95 234.934M254.95 234.934L244.358 234.272M254.95 234.934L320 239L256.423 227.079M254.95 234.934L256.423 227.079M244.358 234.272L244.942 224.927M244.358 234.272L232.596 233.537M256.423 227.079L244.942 224.927M256.423 227.079L282.785 86.4777M244.942 224.927L231.905 222.482M244.942 224.927L253.249 92.0158M231.905 222.482L232.596 233.537M231.905 222.482L219.271 220.113M231.905 222.482L224.093 97.4826M232.596 233.537L221.66 232.854M232.596 233.537L233.339 245.416M219.271 220.113L221.66 232.854M219.271 220.113L197.223 102.521M221.66 232.854L224.124 245.992M224.124 245.992L233.339 245.416M224.124 245.992L226.294 257.57M233.339 245.416L234.008 256.124M234.008 256.124L238 320L226.294 257.57M234.008 256.124L226.294 257.57M253.249 92.0158L282.785 86.4777M253.249 92.0158L253.773 83.6392M253.249 92.0158L224.093 97.4826M282.785 86.4777L283.668 81.7708M282.785 86.4777L320 79.5L283.668 81.7708M283.668 81.7708L253.773 83.6392M283.668 81.7708L284.695 76.2934M253.773 83.6392L254.35 74.3969M253.773 83.6392L223.346 85.5409M284.695 76.2934L254.35 74.3969M284.695 76.2934L320 78.5L285.494 72.0302M284.695 76.2934L285.494 72.0302M254.35 74.3969L254.857 66.2857M254.35 74.3969L222.525 72.4078M285.494 72.0302L254.857 66.2857M254.857 66.2857L221.755 60.079M222.525 72.4078L223.346 85.5409M222.525 72.4078L221.755 60.079M222.525 72.4078L191.209 70.4506M223.346 85.5409L224.093 97.4826M223.346 85.5409L194.378 87.3513M221.755 60.079L188.081 53.7652M224.093 97.4826L197.223 102.521M194.378 87.3513L197.223 102.521M194.378 87.3513L191.209 70.4506M191.209 70.4506L188.081 53.7652M0 0H320V320H0V0Z" fill="none" stroke="var(--color,#FF5455)" stroke-width="2"/>
</g>
</g>
<g id="questions">
<rect id="question-1" x="27" y="113" width="98" height="98" stroke="black" stroke-width="2"/>
<rect id="question-1_2" x="191" y="28" width="98" height="98" stroke="black" stroke-width="2"/>
<rect id="question-1_3" x="27" y="30" width="98" height="98" stroke="black" stroke-width="2"/>
<rect id="question-1_4" x="27" y="191" width="98" height="98" stroke="black" stroke-width="2"/>
<rect id="question-1_5" x="191" y="189" width="98" height="98" stroke="black" stroke-width="2"/>
<rect id="question-1_6" x="191" y="111" width="98" height="98" stroke="black" stroke-width="2"/>
</g>
</g>
<defs>
<clipPath id="clip0_1649_2531">
<rect width="320" height="320" fill="white"/>
</clipPath>
</defs>
</svg>
