<svg width="320" height="320" viewBox="0 0 320 320" fill="none" xmlns="http://www.w3.org/2000/svg">
<g id="cutout-circles-stroke" clip-path="url(#clip0_911_2082)">
<g id="pattern">
<rect id="background" width="320" height="320" fill="#2A468E"/>
<g id="Group 18">
<path id="Ellipse 15 (Stroke)" d="M212.5 195C212.5 243.325 173.325 282.5 125 282.5C76.6751 282.5 37.5 243.325 37.5 195C37.5 146.675 76.6751 107.5 125 107.5C173.325 107.5 212.5 146.675 212.5 195ZM125 297.5C181.609 297.5 227.5 251.609 227.5 195C227.5 138.391 181.609 92.5 125 92.5C68.3908 92.5 22.5 138.391 22.5 195C22.5 251.609 68.3908 297.5 125 297.5Z" fill="#FF5455" stroke="#2A468E" stroke-width="5"/>
<path id="Ellipse 14 (Stroke)" d="M282.5 125C282.5 173.325 243.325 212.5 195 212.5C146.675 212.5 107.5 173.325 107.5 125C107.5 76.6751 146.675 37.5 195 37.5C243.325 37.5 282.5 76.6751 282.5 125ZM195 227.5C251.609 227.5 297.5 181.609 297.5 125C297.5 68.3908 251.609 22.5 195 22.5C138.391 22.5 92.5 68.3908 92.5 125C92.5 181.609 138.391 227.5 195 227.5Z" fill="#FF5455" stroke="#2A468E" stroke-width="5"/>
<path id="Ellipse 13 (Stroke)" d="M212.5 125C212.5 173.325 173.325 212.5 125 212.5C76.6751 212.5 37.5 173.325 37.5 125C37.5 76.6751 76.6751 37.5 125 37.5C173.325 37.5 212.5 76.6751 212.5 125ZM125 227.5C181.609 227.5 227.5 181.609 227.5 125C227.5 68.3908 181.609 22.5 125 22.5C68.3908 22.5 22.5 68.3908 22.5 125C22.5 181.609 68.3908 227.5 125 227.5Z" fill="#FF5455" stroke="#2A468E" stroke-width="5"/>
<path id="Ellipse 16 (Stroke)" d="M282.5 195C282.5 243.325 243.325 282.5 195 282.5C146.675 282.5 107.5 243.325 107.5 195C107.5 146.675 146.675 107.5 195 107.5C243.325 107.5 282.5 146.675 282.5 195ZM195 297.5C251.609 297.5 297.5 251.609 297.5 195C297.5 138.391 251.609 92.5 195 92.5C138.391 92.5 92.5 138.391 92.5 195C92.5 251.609 138.391 297.5 195 297.5Z" fill="#FF5455" stroke="#2A468E" stroke-width="5"/>
</g>
</g>
<g id="questions">
<rect id="question-8" x="169" y="121" width="78" height="78" stroke="black" stroke-width="2"/>
<rect id="question-7" x="239" y="121" width="78" height="78" stroke="black" stroke-width="2"/>
<rect id="question-6" x="73" y="121" width="78" height="78" stroke="black" stroke-width="2"/>
<rect id="question-5" x="3" y="121" width="78" height="78" stroke="black" stroke-width="2"/>
<rect id="question-4" x="121" y="73" width="78" height="78" stroke="black" stroke-width="2"/>
<rect id="question-3" x="121" y="3" width="78" height="78" stroke="black" stroke-width="2"/>
<rect id="question-2" x="121" y="169" width="78" height="78" stroke="black" stroke-width="2"/>
<rect id="question-1" x="121" y="239" width="78" height="78" stroke="black" stroke-width="2"/>
</g>
</g>
<defs>
<clipPath id="clip0_911_2082">
<rect width="320" height="320" fill="white"/>
</clipPath>
</defs>
</svg>
