<svg width="320" height="320" viewBox="0 0 320 320" fill="none" xmlns="http://www.w3.org/2000/svg">
<g id="cutout-go" clip-path="url(#clip0_873_2666)">
<g id="pattern">
<rect id="background" width="320" height="320" fill="#FFDF32"/>
<line id="Line 29" y1="212" x2="320" y2="212" stroke="black" stroke-width="4"/>
<line id="Line 28" y1="105" x2="320" y2="105" stroke="black" stroke-width="4"/>
<line id="Line 3" x1="216" y1="-8.74228e-08" x2="216" y2="320" stroke="black" stroke-width="4"/>
<line id="Line 2" x1="109" y1="-8.74228e-08" x2="109" y2="320" stroke="black" stroke-width="4"/>
<circle id="Ellipse 5" cx="160" cy="51" r="40" fill="black"/>
<circle id="Ellipse 7" cx="52" cy="160" r="40" fill="black"/>
<circle id="Ellipse 9" cx="267" cy="160" r="40" fill="black"/>
<circle id="Ellipse 10" cx="52" cy="268" r="40" fill="black"/>
<circle id="Ellipse 11" cx="160" cy="268" r="40" fill="black"/>
<circle id="Ellipse 12" cx="267" cy="268" r="40" fill="black"/>
</g>
<g id="questions">
<rect id="question-9" x="178" y="174" width="76" height="76" stroke="#EB00FF" stroke-width="4"/>
<rect id="question-8" x="178" y="122" width="76" height="76" stroke="#EB00FF" stroke-width="4"/>
<rect id="question-7" x="178" y="67" width="76" height="76" stroke="#EB00FF" stroke-width="4"/>
<rect id="question-6" x="122" y="174" width="76" height="76" stroke="#EB00FF" stroke-width="4"/>
<rect id="question-5" x="122" y="122" width="76" height="76" stroke="#EB00FF" stroke-width="4"/>
<rect id="question-4" x="122" y="67" width="76" height="76" stroke="#EB00FF" stroke-width="4"/>
<rect id="question-3" x="71" y="174" width="76" height="76" stroke="#EB00FF" stroke-width="4"/>
<rect id="question-2" x="71" y="122" width="76" height="76" stroke="#EB00FF" stroke-width="4"/>
<rect id="question-1" x="71" y="67" width="76" height="76" stroke="#EB00FF" stroke-width="4"/>
</g>
</g>
<defs>
<clipPath id="clip0_873_2666">
<rect width="320" height="320" fill="white"/>
</clipPath>
</defs>
</svg>
