<svg viewBox="0 0 77 13" fill="none" xmlns="http://www.w3.org/2000/svg">
<g id="iphone-icons-18" fill="var(--color)">
<g id="cellular">
<path d="M10.0023 3.49869C10.0023 2.94867 10.4519 2.49913 11.002 2.49913H12.0017C12.5518 2.49913 13.0014 2.94867 13.0014 3.49869V11.4951C13.0014 12.0452 12.5518 12.4947 12.0017 12.4947H11.002C10.4519 12.4947 10.0023 12.0452 10.0023 11.4951V3.49869Z" />
<path d="M15.0009 1.49956C15.0009 0.949536 15.4505 0.5 16.0006 0.5H17.0003C17.5504 0.5 18 0.949536 18 1.49956V11.4951C18 12.0452 17.5504 12.4947 17.0003 12.4947H16.0006C15.4505 12.4947 15.0009 12.0452 15.0009 11.4951V1.49956Z" />
<path d="M4.99858 6.99978C4.99858 6.44976 5.44819 6.00023 5.99829 6.00023H6.99799C7.54809 6.00023 7.9977 6.44976 7.9977 6.99978V11.5004C7.9977 12.0505 7.54809 12.5 6.99799 12.5H5.99829C5.44819 12.5 4.99858 12.0505 4.99858 11.5004V6.99978Z" />
<path d="M0 9.49602C0 8.946 0.449607 8.49646 0.999704 8.49646H1.99941C2.54951 8.49646 2.99911 8.946 2.99911 9.49602V11.4951C2.99911 12.0452 2.54951 12.4947 1.99941 12.4947H0.999704C0.449607 12.4947 0 12.0452 0 11.4951V9.49602Z" />
</g>
<path id="wifi" d="M26.0749 5.64538C26.2199 5.80138 26.4478 5.79459 26.5997 5.63182C28.3054 3.86162 30.5498 2.92565 33.0565 2.92565C35.584 2.92565 37.8353 3.86162 39.5341 5.64538C39.6791 5.78781 39.9001 5.78103 40.0451 5.63182L41.0119 4.6755C41.15 4.53985 41.15 4.36351 41.0395 4.23465C39.3752 2.22028 36.2746 0.775635 33.0565 0.775635C29.8454 0.775635 26.7378 2.2135 25.0804 4.23465C24.97 4.36351 24.97 4.53985 25.1012 4.6755L26.0749 5.64538ZM28.9614 8.46685C29.1272 8.62284 29.3482 8.60928 29.507 8.43972C30.3495 7.53766 31.6961 6.90012 33.0634 6.9069C34.4377 6.90012 35.7843 7.55123 36.6475 8.46007C36.7925 8.62284 36.9997 8.61606 37.1585 8.46007L38.2427 7.41558C38.3739 7.2935 38.3877 7.12394 38.2703 6.98829C37.193 5.70642 35.2249 4.78402 33.0634 4.78402C30.895 4.78402 28.9269 5.70642 27.8496 6.98829C27.7322 7.12394 27.746 7.28672 27.8773 7.41558L28.9614 8.46685ZM33.0634 12.2243C33.2292 12.2243 33.3742 12.1497 33.6573 11.8852L35.3492 10.2845C35.4735 10.1692 35.5011 9.97932 35.3906 9.84367C34.9072 9.24004 34.0302 8.75171 33.0634 8.75171C32.069 8.75171 31.1782 9.26039 30.7017 9.89793C30.6188 10.02 30.6602 10.1692 30.7776 10.2845L32.4695 11.8852C32.7458 12.1429 32.8977 12.2243 33.0634 12.2243Z" />
<g id="_StatusBar-battery">
<path id="Outline" opacity="0.35" d="M48.6191 4C48.6191 2.067 50.1861 0.5 52.1191 0.5H69.1191C71.0521 0.5 72.6191 2.067 72.6191 4V9C72.6191 10.933 71.0521 12.5 69.1191 12.5H52.1191C50.1861 12.5 48.6191 10.933 48.6191 9V4Z" stroke="var(--color)" fill="none" stroke-linecap="round"/>
<path id="Battery End" opacity="0.4" d="M74.1191 5V9.22034C74.9682 8.86291 75.5203 8.0314 75.5203 7.11017C75.5203 6.18894 74.9682 5.35744 74.1191 5Z" />
<path id="Fill" d="M50.1191 4C50.1191 2.89543 51.0146 2 52.1191 2H63.1191C64.2237 2 65.1191 2.89543 65.1191 4V9C65.1191 10.1046 64.2237 11 63.1191 11H52.1191C51.0146 11 50.1191 10.1046 50.1191 9V4Z" />
</g>
</g>
</svg>
