<svg width="100" height="100" viewBox="0 0 100 100" fill="none" xmlns="http://www.w3.org/2000/svg">
<g id="pattern-layers">
<rect x="0.5" y="0.5" width="99" height="99" stroke="black"/>
<path id="layer-top" d="M45.1436 12.698L11.2939 31.5034C8.55069 33.0274 8.55069 36.9726 11.2939 38.4966L45.1436 57.302C48.1638 58.9799 51.8362 58.9799 54.8564 57.302L88.7061 38.4966C91.4493 36.9726 91.4493 33.0274 88.7061 31.5034L54.8564 12.698C51.8362 11.0201 48.1638 11.0201 45.1436 12.698Z" fill="var(--color,#8146FF)" fill-opacity="0.8"/>
<path id="layer-middle" d="M45.1436 27.698L11.2939 46.5034C8.55069 48.0274 8.55069 51.9726 11.2939 53.4966L45.1436 72.302C48.1638 73.9799 51.8362 73.9799 54.8564 72.302L88.7061 53.4966C91.4493 51.9726 91.4493 48.0274 88.7061 46.5034L54.8564 27.698C51.8362 26.0201 48.1638 26.0201 45.1436 27.698Z" fill="var(--color,#8146FF)" fill-opacity="0.6"/>
<path id="layer-bottom" d="M45.1436 42.698L11.2939 61.5034C8.55069 63.0274 8.55069 66.9726 11.2939 68.4966L45.1436 87.302C48.1638 88.9799 51.8362 88.9799 54.8564 87.302L88.7061 68.4966C91.4493 66.9726 91.4493 63.0274 88.7061 61.5034L54.8564 42.698C51.8362 41.0201 48.1638 41.0201 45.1436 42.698Z" fill="var(--color,#d2d6fb)" fill-opacity="1"/>
</g>
</svg>
