<svg width="104" height="104" viewBox="0 0 104 104" fill="none" xmlns="http://www.w3.org/2000/svg">
<style>
*{
    --darkenColor: hsl(from var(--color) h s calc(l - 15));
}
</style>
<g id="pattern-resizable">
<path id="vertical" d="M52 2V102" stroke="var(--color)" stroke-width="4" stroke-linecap="round" stroke-linejoin="round"/>
<path id="horizontal" d="M102 52H2" stroke="var(--color)" stroke-width="4" stroke-linecap="round" stroke-linejoin="round"/>

<circle stroke="var(--darkenColor)" id="circle" cx="52" cy="52" r="50" />
<rect stroke="var(--darkenColor)" id="rect" x="3.5" y="3.5" width="97" height="97" />
<path stroke="var(--darkenColor)" id="star" d="M54.4683 5.412L63.4598 34.3856C64.1923 36.7459 66.3215 38.4085 68.7934 38.4085H97.8904C99.1098 38.4085 100.011 39.1996 100.359 40.3205C100.708 41.4455 100.427 42.6968 99.3932 43.4834L75.8532 61.3901C73.8967 62.8784 73.1092 65.4792 73.8387 67.8299L82.8302 96.8036C83.2429 98.1335 82.7321 99.3066 81.8646 99.9665C81.0074 100.619 79.8681 100.734 78.8591 99.9665L55.3191 82.0598C53.3448 80.558 50.6551 80.558 48.6809 82.0598L25.1409 99.9665C24.1319 100.734 22.9926 100.619 22.1354 99.9665C21.2679 99.3066 20.7571 98.1335 21.1698 96.8036L30.1613 67.8299C30.8908 65.4792 30.1033 62.8784 28.1468 61.3901L4.60679 43.4834C3.57274 42.6968 3.29209 41.4455 3.64121 40.3205C3.98906 39.1996 4.89021 38.4085 6.10956 38.4085H35.2066C37.6785 38.4085 39.8077 36.7459 40.5402 34.3856L49.5317 5.412C50.3228 2.86266 53.6772 2.86267 54.4683 5.412Z"/>
<path stroke="var(--darkenColor)" id="triangle" d="M54.5361 5.22591L100.056 95.0348C100.686 96.2768 100.609 97.683 100.056 98.7741C99.5038 99.8637 98.5653 100.5 97.52 100.5H6.48003C5.43469 100.5 4.49621 99.8637 3.94394 98.7741C3.39092 97.683 3.31444 96.2768 3.94394 95.0348L49.4639 5.22592C50.0825 4.00553 51.0872 3.5 52 3.5C52.9128 3.5 53.9175 4.00552 54.5361 5.22591Z"/>
</g>
</svg>
