<svg width="100" height="101" viewBox="0 0 100 101" fill="none" xmlns="http://www.w3.org/2000/svg">
<g id="pentagon-10">
<path id="pentagon" d="M3.62384 35.9292L50.0002 2.24135L96.3782 35.9294L78.6638 90.4458L21.3383 90.4461L3.62384 35.9292Z" stroke-width="2" stroke-linecap="round" stroke-linejoin="round"/>
<path id="9" d="M2.75725 34.5963C2.23199 34.4256 1.66784 34.7131 1.49718 35.2384C1.32652 35.7636 1.61398 36.3278 2.13924 36.4984L2.75725 34.5963ZM50.31 50.0465L2.75725 34.5963L2.13924 36.4984L49.692 51.9486L50.31 50.0465Z" fill="black"/>
<path id="8" d="M19.8028 90.8585C19.4782 91.3053 19.5772 91.9307 20.024 92.2553C20.4708 92.58 21.0962 92.4809 21.4208 92.0341L19.8028 90.8585ZM49.192 50.4098L19.8028 90.8585L21.4208 92.0341L50.81 51.5854L49.192 50.4098Z" fill="black"/>
<path id="7" d="M78.5813 92.0338C78.9059 92.4806 79.5313 92.5797 79.9781 92.255C80.4249 91.9304 80.5239 91.305 80.1993 90.8582L78.5813 92.0338ZM49.192 51.5854L78.5813 92.0338L80.1993 90.8582L50.81 50.4098L49.192 51.5854Z" fill="black"/>
<path id="6" d="M97.8628 36.4984C98.3881 36.3278 98.6755 35.7636 98.5049 35.2384C98.3342 34.7131 97.7701 34.4256 97.2448 34.5963L97.8628 36.4984ZM50.31 51.9484L97.8628 36.4984L97.2448 34.5963L49.692 50.0463L50.31 51.9484Z" fill="black"/>
<path id="5" d="M51.0008 1C51.0008 0.447715 50.5531 0 50.0008 0C49.4485 0 49.0008 0.447715 49.0008 1H51.0008ZM50.5877 0.19629C50.1409 -0.128286 49.5155 -0.0291699 49.1909 0.417673C48.8663 0.864516 48.9655 1.48987 49.4123 1.81445L50.5877 0.19629ZM51.0008 50.9973V1.00596H49.0008V50.9973H51.0008ZM51.0008 1.00596V1H49.0008V1.00596H51.0008ZM49.4123 1.81445L49.4131 1.81504L50.5885 0.196883L50.5877 0.19629L49.4123 1.81445Z" fill="black"/>
<path id="4" d="M2.44824 35.5472L50.0002 1.00537L50.001 1.00596V1" stroke="black" stroke-width="2" stroke-linecap="round" stroke-linejoin="round"/>
<path id="3" d="M20.6118 91.4463L2.44824 35.5474" stroke="black" stroke-width="2" stroke-linecap="round" stroke-linejoin="round"/>
<path id="2" d="M79.3903 91.4458L20.6118 91.4461" stroke="black" stroke-width="2" stroke-linecap="round" stroke-linejoin="round"/>
<path id="1" d="M97.5537 35.5474L79.3901 91.4459" stroke="black" stroke-width="2" stroke-linecap="round" stroke-linejoin="round"/>
<path id="0" d="M97.5537 35.5473L50.0008 1.00596M50.0008 1.00596V1M50.0008 1.00596L50 1.00537" stroke="black" stroke-width="2" stroke-linecap="round" stroke-linejoin="round"/>
</g>
</svg>
