<svg width="100" height="100" viewBox="0 0 100 100" fill="none" xmlns="http://www.w3.org/2000/svg">
<!-- svg style block doesn't work on mobile (iphone) -->
<style>
#star-arrow,
#star-bg
{
    filter: drop-shadow(0px 0px 5px rgba(0, 0, 0, .25));
}
</style>
<g id="rotation-star-tg">
<rect width="100" height="100" fill="white" fill-opacity="0.58"/>
<rect id="background" width="99.9995" height="99.9984" fill="var(--color)"/>
<path id="star-bg" d="M46.2534 10.0198C47.5492 6.55439 52.4508 6.55439 53.7466 10.0198L61.4163 30.531C61.9784 32.0344 63.3848 33.0561 64.9883 33.1262L86.8657 34.0822C90.5619 34.2437 92.0766 38.9055 89.1812 41.2087L72.044 54.8413C70.7879 55.8405 70.2507 57.4938 70.6796 59.0404L76.5309 80.1425C77.5195 83.7077 73.5539 86.5888 70.4687 84.5469L52.2076 72.4611C50.8692 71.5753 49.1308 71.5752 47.7924 72.4611L29.5313 84.5469C26.4461 86.5888 22.4805 83.7077 23.4691 80.1425L29.3204 59.0404C29.7493 57.4938 29.2121 55.8405 27.956 54.8413L10.8188 41.2087C7.92342 38.9055 9.43812 34.2437 13.1343 34.0822L35.0117 33.1262C36.6152 33.0561 38.0216 32.0344 38.5837 30.531L46.2534 10.0198Z" fill="white" fill-opacity="0.67"/>
<g id="star-arrow">
<path id="star-arrow-path" fill-rule="evenodd" clip-rule="evenodd" d="M62.3436 33.0106H37.6566L13.1344 34.0822C9.43821 34.2437 7.92351 38.9055 10.8189 41.2087L27.9561 54.8413C29.2122 55.8405 29.7494 57.4938 29.3205 59.0404L23.4692 80.1425C22.4806 83.7077 26.4462 86.5888 29.5314 84.5469L50.0001 71L69.9723 56.4894L89.1813 41.2087C92.0767 38.9055 90.562 34.2437 86.8658 34.0822L62.3436 33.0106Z" fill="white"/>
</g>
</g>
</svg>
