<svg width="100" height="100" viewBox="0 0 100 100" fill="none" xmlns="http://www.w3.org/2000/svg">
<g id="shuffle-frames">
<path id="fill-outer"  d="M95 100H5C2.23858 100 0 97.7614 0 95V5C0 2.23858 2.23858 0 5 0H95C97.7614 0 100 2.23858 100 5V95C100 97.7614 97.7614 100 95 100Z"/>
<path id="fill-middle" d="M78.6667 83.6667H22C19.2386 83.6667 17 81.4281 17 78.6667V22C17 19.2386 19.2386 17 22 17H78.6667C81.4281 17 83.6667 19.2386 83.6667 22V78.6667C83.6667 81.4281 81.4281 83.6667 78.6667 83.6667Z" />
<path id="fill-inner"  d="M61.3333 66.3333H38C35.2386 66.3333 33 64.0948 33 61.3333V38C33 35.2386 35.2386 33 38 33H61.3333C64.0948 33 66.3333 35.2386 66.3333 38V61.3333C66.3333 64.0948 64.0948 66.3333 61.3333 66.3333Z" />

<path id="frame-outer" stroke="black"  d="M95 97.5H5C3.61929 97.5 2.5 96.3807 2.5 95V5C2.5 3.61929 3.61929 2.5 5 2.5H95C96.3807 2.5 97.5 3.61929 97.5 5V95C97.5 96.3807 96.3807 97.5 95 97.5Z" />
<path id="frame-middle" stroke="black" d="M78.6667 81.1667H22C20.6193 81.1667 19.5 80.0474 19.5 78.6667V22C19.5 20.6193 20.6193 19.5 22 19.5H78.6667C80.0474 19.5 81.1667 20.6193 81.1667 22V78.6667C81.1667 80.0474 80.0474 81.1667 78.6667 81.1667Z" />
<path id="frame-inner" stroke="black" d="M61.3333 63.8333H38C36.6193 63.8333 35.5 62.714 35.5 61.3333V38C35.5 36.6193 36.6193 35.5 38 35.5H61.3333C62.714 35.5 63.8333 36.6193 63.8333 38V61.3333C63.8333 62.714 62.714 63.8333 61.3333 63.8333Z" />
</g>
</svg>
