<svg width="100" height="100" viewBox="0 0 100 100" fill="none" xmlns="http://www.w3.org/2000/svg">
    <g id="shuffle-icons">
        <path id="frame" d="M99.5 0.5V99.5H0.5V0.5H99.5Z" stroke="#EB00FF" stroke-linecap="round" stroke-linejoin="round"></path>
        <!-- svg style block doesn't work on mobile (iphone) -->
        <style>
        *{--darkenColor: hsl(from var(--color) h s calc(l - 5));}
        </style>
        <g id="battery" fill="var(--color)" stroke="var(--darkenColor)">
            <path d="M81.7333 50V60.5H95V50V39.5H81.7333V50Z" fill-opacity="0.75"></path>
            <path fill-rule="evenodd" clip-rule="evenodd" d="M24.1833 95H5V50V5H24.1833H43.3667V95H24.1833Z" fill-opacity="0.75"></path>
            <path d="M81.7333 60.5V50V39.5M81.7333 60.5V72V95H43.3667M81.7333 60.5H95V50V39.5H81.7333M81.7333 39.5V28V5H43.3667M43.3667 95V5M43.3667 95H24.1833M43.3667 5H24.1833M24.1833 5H5V50V95H24.1833M24.1833 5V95" fill="none" stroke-width="10" stroke-linecap="round" stroke-linejoin="round"></path>
        </g>
        <g id="drop" fill="var(--color)" stroke="var(--darkenColor)">
            <path d="M27.5 10.7608C13.9085 18.3819 5 32.8702 5 50C5 67.1298 13.9085 81.6181 27.5 89.2392V50V10.7608Z" fill-opacity="0.75"></path>
            <path d="M50 50V5C41.7247 5 34.0659 7.07906 27.5 10.7608V50V89.2392C34.0659 92.9209 41.7247 95 50 95V50Z" fill-opacity="0.75"></path>
            <path d="M50 95C75.4051 95 95 75.4051 95 50C95 24.5949 75.4051 5 50 5M50 95V50V5M50 95C41.7247 95 34.0659 92.9209 27.5 89.2392M50 5C41.7247 5 34.0659 7.07906 27.5 10.7608M27.5 10.7608C13.9085 18.3819 5 32.8702 5 50C5 67.1298 13.9085 81.6181 27.5 89.2392M27.5 10.7608V50V89.2392" fill="none" stroke-width="10"></path>
        </g>
        <g id="signal" fill="var(--color)" stroke="var(--darkenColor)">
            <path fill-rule="evenodd" clip-rule="evenodd" d="M94.875 89V85.3603C94.875 83.769 94.2429 82.2429 93.1176 81.1176L67.2463 55.2463L42.375 30.375V95H54.5H67.2463H88.875C92.1887 95 94.875 92.3137 94.875 89Z" fill-opacity="0.75"></path>
            <path d="M42.375 95H29.25H11M42.375 95H54.5H67.2463M42.375 95V30.375M42.375 30.375L18.8824 6.88236M42.375 30.375L67.2463 55.2463M94.875 85.3603V89M94.875 85.3603C94.875 83.769 94.2429 82.2429 93.1176 81.1176M94.875 85.3603V85.3603C94.875 83.769 94.2429 82.2429 93.1176 81.1176V81.1176M94.875 89C94.875 92.3137 92.1887 95 88.875 95M94.875 89V89C94.875 92.3137 92.1887 95 88.875 95V95M88.875 95H67.2463M11 95C7.68629 95 5 92.3137 5 89M11 95V95C7.68629 95 5 92.3137 5 89V89M5 89V11.125M5 11.125C5 7.81129 7.68629 5.125 11 5.125M5 11.125V11.125C5 7.81129 7.68629 5.125 11 5.125V5.125M11 5.125H14.6397M14.6397 5.125C16.231 5.125 17.7571 5.75714 18.8824 6.88236M14.6397 5.125V5.125C16.231 5.125 17.7571 5.75714 18.8824 6.88236V6.88236M93.1176 81.1176L67.2463 55.2463M67.2463 55.2463V95" fill="none" stroke-width="10" stroke-miterlimit="16" stroke-linejoin="round"></path>
        </g>
    </g>
</svg>