<svg width="100" height="100" viewBox="0 0 100 100" fill="none" xmlns="http://www.w3.org/2000/svg">
<g id="shuffle-quarters">


<path id="quarter-4" d="M50 0C22.3858 0 0 22.3858 0 50H50V0Z" fill="var(--color)" />
<path id="quarter-3" d="M0 50C0 77.6142 22.3858 100 50 100V50H0Z" fill="var(--color)"/>
<path id="quarter-2" d="M50 100C77.6142 100 100 77.6142 100 50H50V100Z" fill="var(--color)"/>
<path id="quarter-1" d="M100 50C100 22.3858 77.6142 0 50 0V50H100Z" fill="var(--color)"/>

<path id="line-h" d="M1 50H99" stroke="black" stroke-width="2" stroke-linecap="round" stroke-linejoin="round"/>
<path id="line-v" d="M50 99V1" stroke="black" stroke-width="2" stroke-linecap="round" stroke-linejoin="round"/>

<path id="circle" d="M50 1C77.0619 1 99 22.9381 99 50C99 77.0619 77.0619 99 50 99C22.9381 99 1 77.0619 1 50C1 22.9381 22.9381 1 50 1Z" stroke="black" stroke-width="2" stroke-linecap="round" stroke-linejoin="round" fill="var(--color)"/>

</g>
</svg>
