<svg width="100" height="100" viewBox="0 0 100 100" fill="none" xmlns="http://www.w3.org/2000/svg">
<g id="spark-icons">
<path id="frame" d="M99.5 0.5V99.5H0.5V0.5H99.5Z" stroke="#EB00FF" stroke-linecap="round" stroke-linejoin="round"/>
<path id="spark-5" fill-rule="evenodd" clip-rule="evenodd" d="M50.4999 8.84798L50.502 8C50.7298 31.1355 69.4396 50.6972 92.5728 50.9251L93 50.9268C69.8703 51.1569 50.7321 69.8679 50.5021 93L50.481 92.156L50.4978 93C50.2678 69.8679 31.1297 51.1573 8 50.9272L8.42708 50.9251C31.5603 50.6973 50.2701 31.9856 50.4978 8.85007L50.4999 8.84798Z" fill="#00C8DC" stroke="#2B2B2B" stroke-width="4" stroke-linejoin="round"/>
<path id="spark-4" fill-rule="evenodd" clip-rule="evenodd" d="M50.4999 8.84798L50.502 8C50.7298 31.1355 69.4396 50.6972 92.5728 50.9251L93 50.9268C69.8703 51.1569 50.7321 69.8679 50.5021 93L50.481 92.156L50.4978 93C50.2678 69.8679 31.1297 51.1573 8 50.9272L8.42708 50.9251C31.5603 50.6973 50.2701 31.9856 50.4978 8.85007L50.4999 8.84798Z" fill="#FFDF32" stroke="#2B2B2B" stroke-width="4" stroke-linejoin="round"/>
<path id="spark-3" fill-rule="evenodd" clip-rule="evenodd" d="M50.4999 8.84798L50.502 8C50.7298 31.1355 69.4396 50.6972 92.5728 50.9251L93 50.9268C69.8703 51.1569 50.7321 69.8679 50.5021 93L50.481 92.156L50.4978 93C50.2678 69.8679 31.1297 51.1573 8 50.9272L8.42708 50.9251C31.5603 50.6973 50.2701 31.9856 50.4978 8.85007L50.4999 8.84798Z" fill="#2B2B2B" stroke="#2B2B2B" stroke-width="4" stroke-linejoin="round"/>
<path id="spark-2" fill-rule="evenodd" clip-rule="evenodd" d="M50.4999 8.84798L50.502 8C50.7298 31.1355 69.4396 50.6972 92.5728 50.9251L93 50.9268C69.8703 51.1569 50.7321 69.8679 50.5021 93L50.481 92.156L50.4978 93C50.2678 69.8679 31.1297 51.1573 8 50.9272L8.42708 50.9251C31.5603 50.6973 50.2701 31.9856 50.4978 8.85007L50.4999 8.84798Z" fill="white" stroke="#2B2B2B" stroke-width="4" stroke-linejoin="round"/>
<path id="spark-1" fill-rule="evenodd" clip-rule="evenodd" d="M50.4999 8.84798L50.502 8C50.7298 31.1355 69.4396 50.6972 92.5728 50.9251L93 50.9268C69.8703 51.1569 50.7321 69.8679 50.5021 93L50.481 92.156L50.4978 93C50.2678 69.8679 31.1297 51.1573 8 50.9272L8.42708 50.9251C31.5603 50.6973 50.2701 31.9856 50.4978 8.85007L50.4999 8.84798Z" fill="#F43229" stroke="#2B2B2B" stroke-width="4" stroke-linejoin="round"/>
</g>
</svg>
