<svg width="100" height="115" viewBox="0 0 100 115" xmlns="http://www.w3.org/2000/svg">
<g id="xor-halves">
<path id="frame" d="M99.5 0.5V99.5H0.5V0.5H99.5Z" stroke="#EB00FF" stroke-linecap="round" stroke-linejoin="round"/>
<path id="half-2" d="M100 100H0V50H100V100Z" />
<path id="half-1" d="M100 50H0V0H100V50Z" />
<path id="cutout-2" d="M85 88H16C14.3431 88 13 86.6569 13 85V16C13 14.3431 14.3431 13 16 13H85C86.6569 13 88 14.3431 88 16V85C88 86.6569 86.6569 88 85 88Z" />
<path id="cutout-7" d="M47.8121 14.4231C48.9142 12.1994 52.0858 12.1994 53.1879 14.4231L87.7569 84.1677C88.7452 86.1618 87.2945 88.5 85.0689 88.5H15.9311C13.7055 88.5 12.2548 86.1618 13.2431 84.1677L47.8121 14.4231Z" />
<circle id="cutout-4" cx="50.5" cy="50.5" r="37.5" />
<path id="cutout-1" d="M72 75H28C26.3431 75 25 73.6569 25 72V28C25 26.3431 26.3431 25 28 25H72C73.6569 25 75 26.3431 75 28V72C75 73.6569 73.6569 75 72 75Z" />
<path id="cutout-8" d="M47.3137 26.4033C48.417 24.184 51.583 24.184 52.6863 26.4033L74.6913 70.6645C75.6828 72.6588 74.2322 75 72.005 75H27.995C25.7678 75 24.3172 72.6588 25.3087 70.6645L47.3137 26.4033Z" />
<circle id="cutout-3" cx="50" cy="50" r="25" />
<path id="cutout-6" d="M62 65H38C36.3431 65 35 63.6569 35 62V38C35 36.3431 36.3431 35 38 35H62C63.6569 35 65 36.3431 65 38V62C65 63.6569 63.6569 65 62 65Z" />
<path id="cutout-9" d="M47.2816 36.8236C48.359 34.5155 51.641 34.5155 52.7184 36.8236L64.4618 61.9811C65.3902 63.97 63.9383 66.25 61.7434 66.25H38.2567C36.0617 66.25 34.6098 63.97 35.5382 61.9811L47.2816 36.8236Z" />
<circle id="cutout-5" cx="50" cy="50" r="15" />
<line id="separator" y1="50.5" x2="100" y2="50.5" stroke="black" stroke-width="2"/>
</g>
</svg>
