<svg width="102" height="102" viewBox="0 0 102 102" fill="none" xmlns="http://www.w3.org/2000/svg">

<path id="6" fill="none" d="M101 101C84.8063 101 72.1105 98.4619 55.9811 90.3173C55.9811 90.3173 52.6318 88.5655 51 87.6216" stroke="currentColor" stroke-linecap="round"/>
<path id="11" fill="none" d="M51 14.3784C35.8186 23.1604 23.1601 35.8188 14.3782 51.0002" stroke="currentColor" stroke-linecap="round"/>
<path id="10" fill="none" d="M51 87.6218C66.1814 78.8398 78.8398 66.1814 87.6218 51" stroke="currentColor" stroke-linecap="round"/>
<path id="9" fill="none" d="M51 87.6218C35.8186 78.8398 23.1601 66.1814 14.3782 51" stroke="currentColor" stroke-linecap="round"/>
<path id="8" fill="none" d="M51 14.3784C66.1814 23.1604 78.8398 35.8188 87.6218 51.0002" stroke="currentColor" stroke-linecap="round"/>
<path id="5" fill="none" d="M1 1C1 19.2144 5.86971 36.2913 14.3782 51" stroke="currentColor" stroke-linecap="round"/>
<path id="7" fill="none" d="M1 1C19.2144 1 36.2913 5.86971 51 14.3782" stroke="currentColor" stroke-linecap="round"/>
<path id="0" fill="none" d="M101 1C82.7856 1 65.7087 5.86971 51 14.3782" stroke="currentColor" stroke-linecap="round"/>
<path id="2" fill="none" d="M101 1C101 19.2144 96.1301 36.2913 87.6216 51" stroke="currentColor" stroke-linecap="round"/>
<path id="3" fill="none" d="M1 101C1 82.7856 5.86971 65.7087 14.3782 51" stroke="currentColor" stroke-linecap="round"/>
<path id="1" fill="none" d="M1 101C19.2144 101 36.2913 96.1301 51 87.6216" stroke="currentColor" stroke-linecap="round"/>
<path id="4" fill="none" d="M101 101C101 82.7856 96.1301 65.7087 87.6216 51" stroke="currentColor" stroke-linecap="round"/>

</svg>
